# xmcd CD database file
# Copyright (C) 1993-1996 Ti Kan
#
# Track frame offsets:
#	150
#	17882
#	34742
#	50660
#	68007
#	87997
#	106082
#	120047
#	133347
#	148425
#	164725
#	184465
#
# Disc length: 2717 seconds
#
# Revision: 1
# Processed by: cddbd v1.4b41PL1 Copyright (c) Steve Scherf et al.
# Submitted via: CDValet v3.30 - Copyright (c) 1997 Greg Leichner
#
DISCID=b00a9b0c
DTITLE=Kenny Rogers - The Best Of Kenny Rogers [CDTwo)
DYEAR=1900
DGENRE=
TTITLE0=Lady
TTITLE1=Don't Fall In Love With A Dreamer (Duet With Kim Carnes
TTITLE1=)
TTITLE2=I Don't Need You
TTITLE3=We've Got Tonight (Duet With Sheena Easton)
TTITLE4=Through The Years
TTITLE5=Scarlet Fever
TTITLE6=Everytime Two Fools Collide (Duet With Dottie West)
TTITLE7=Somewhere Between Lovers And Friends
TTITLE8=A Love Song
TTITLE9=Green Green Grass Of Home
TTITLE10=Long Arm Of The Law
TTITLE11=Sweet Music Man
EXTD=
EXTT0=
EXTT1=
EXTT2=
EXTT3=
EXTT4=
EXTT5=
EXTT6=
EXTT7=
EXTT8=
EXTT9=
EXTT10=
EXTT11=
PLAYORDER=
